<?xml version="1.0" encoding="UTF-8"?>
<svg version="1.1" viewBox="0 0 400 400" xmlns="http://www.w3.org/2000/svg">
<g fill-rule="evenodd">
<path d="m174.29 25.899l-6.31 0.121 0.11 6.29 0.11 6.29 25.5 0.103 25.5 0.103v-6.339-6.339l-9.3-0.263c-8.799-0.249-21.493-0.237-35.61 0.034m32.11 6.501v6h-12.8-12.8v-6-6h12.8 12.8v6m13.2 12.794v6.406h12.79 12.79l0.11 6.3 0.11 6.3 12.71 0.106 12.71 0.105-0.11-6.305-0.11-6.306-12.69-0.106-12.69-0.105-0.11-6.295-0.11-6.294-12.7-0.106-12.7-0.105v6.405m51.69 25.706l0.11 6.5h6.2 6.2l0.111-5.946c0.141-7.577 0.643-7.054-6.77-7.054h-5.961l0.11 6.5m-154.9 12.6c-3e-3 3.245-0.148 6.122-0.32 6.394-0.236 0.372-3.441 0.521-12.894 0.6l-12.58 0.106-0.2 6.2-0.2 6.2-6.2 0.2-6.2 0.2-0.11 6.059c-0.135 7.41 0.391 6.89-7.118 7.03l-5.972 0.111-0.2 25.6-0.2 25.6-6.294 0.11-6.295 0.11-0.105 12.69-0.106 12.69-6.3 0.11-6.3 0.11v6.38 6.38l6.3 0.11 6.3 0.11 0.11 6.3 0.11 6.3h6.39 6.39v-6.157c0-7.315-0.711-6.643 7.027-6.643h5.762l0.105 12.9 0.106 12.9 6.3 0.11 6.3 0.11v5.816c0 8.199-1.519 7.364 13.404 7.364h12.576l0.11 6.3 0.11 6.3 44.757 0.102c32.741 0.074 44.903-0.02 45.3-0.349 0.413-0.343 0.543-1.877 0.543-6.402v-5.951h12.351c14.667 0 13.193 0.777 13.338-7.028l0.111-5.972 6.29-0.11 6.29-0.11 0.11 6.31 0.11 6.31h12.6 12.6l0.2-6.2 0.2-6.2 12.8-0.2 12.8-0.2 0.111-6.183c0.133-7.404-0.483-6.803 6.979-6.811l5.89-6e-3 0.11-6.3 0.11-6.3 6.3-0.11 6.3-0.11v-12.78-12.78l-6.3-0.11-6.3-0.11-0.11-6.3-0.11-6.3-5.89-6e-3c-7.462-8e-3 -6.846 0.593-6.979-6.811l-0.111-6.183-6.29-0.11-6.29-0.11-0.11-6.29-0.11-6.29-6.183-0.111c-7.404-0.133-6.803 0.483-6.811-6.979l-6e-3 -5.89-6.3-0.11-6.3-0.11-0.11-6.3-0.11-6.3-5.89-6e-3c-7.462-8e-3 -6.846 0.593-6.979-6.811l-0.111-6.183-6.29-0.11-6.29-0.11-0.11-6.29-0.11-6.29-12.8-0.2-12.8-0.2-0.11-6.3-0.11-6.3h-44.99-44.99l-6e-3 5.9m167.7 0.39l0.11 6.31h6.2 6.2v-6.2-6.2l-6.31-0.11-6.31-0.11 0.11 6.31m-90.58 25.81l0.11 6.3h-19.41-19.41v-6.133c0-3.374 0.122-6.255 0.271-6.404 0.148-0.149 8.833-0.224 19.3-0.167l19.029 0.104 0.11 6.3m-38.91 12.7v6.2h-19.2-19.2l-0.111-5.745c-0.076-3.919 0.036-5.924 0.352-6.304 0.387-0.467 3.576-0.542 19.311-0.455l18.848 0.104v6.2m64.562-5.845c0.312 0.376 0.425 2.404 0.349 6.3l-0.111 5.745h-12.8-12.8l-0.111-5.782c-0.062-3.179-0.022-6.014 0.087-6.3 0.303-0.788 24.731-0.754 25.386 0.037m-25.872 6.545l0.11 6.3 12.7 0.106 12.7 0.105v5.762c0 7.749-0.703 7.027 6.843 7.027h6.357v6.39 6.39l6.3 0.11 6.3 0.11 0.111 6.183c0.133 7.405-0.485 6.803 6.989 6.811l5.9 6e-3v18.79 18.79l-6.3 0.11-6.3 0.11-0.2 12.8-0.2 12.8-6.29 0.11-6.29 0.11-0.11 6.29-0.11 6.29-12.8 0.2-12.8 0.2-0.11 6.3-0.11 6.3h-44.59-44.59v-5.767c0-3.172-0.109-6.052-0.243-6.4-0.214-0.559-1.735-0.633-12.99-0.633h-12.747l-0.11-6.3-0.11-6.3-6.3-0.11-6.3-0.11v-12.601-12.6l6.1 0.111 6.1 0.11 0.2 6.2 0.2 6.2h6.2 6.2v-6.4-6.4l-6.04-0.11-6.041-0.11-0.213-25.279c-0.117-13.904-0.123-25.512-0.014-25.796 0.157-0.41 2.768-0.494 12.653-0.411l12.455 0.106 0.11 6.1 0.111 6.1-6.111 6e-3c-3.36 3e-3 -6.338 0.151-6.616 0.327-0.394 0.25-0.482 3.182-0.4 13.294l0.106 12.973 6.3 0.11 6.3 0.11 6e-3 5.89c3e-3 3.24 0.151 6.118 0.327 6.396 0.25 0.394 3.182 0.482 13.294 0.4l12.973-0.106v-26-26l-6.29-0.11-6.29-0.11-0.11-6.29-0.11-6.29-6.3-0.11-6.3-0.11v-5.986-5.986l19.1-0.104 19.1-0.104 0.11-6.3 0.11-6.3h18.98 18.98l0.11 6.3m-77.29 12.5v6.4h-12.79-12.79l-0.11 6.3-0.11 6.3-6.3 0.11-6.3 0.11v-6.41-6.41h6.4 6.4v-6.4-6.4h12.8 12.8v6.4m116.31-0.1l0.111 6.1h-6.411-6.41v-6.21-6.21l6.3 0.11 6.3 0.11 0.11 6.1m-51.91 12.5v6.4h-6.357c-7.552 0-6.843-0.741-6.843 7.153 0 7.357-0.521 6.847 7 6.847 7.538 0 7 0.544 7-7.08v-6.12h12.4 12.4v6.12c0 7.615-0.52 7.08 6.88 7.08h5.92v19.011 19.01l-5.9-0.11-5.9-0.111-0.11-6.5-0.11-6.5h-12.78-12.78l-0.11-6.3-0.11-6.3-6.57-0.11c-4.988-0.084-6.648 0.012-6.894 0.4-0.417 0.657-0.426 24.75-9e-3 25.406 0.242 0.381 4.761 0.52 19.494 0.6l19.179 0.104 0.111 5.983c0.133 7.162-0.436 6.603 6.74 6.611 6.948 7e-3 6.497 0.471 6.638-6.821l0.111-5.773 6.4-0.2 6.4-0.2 0.11-6.29 0.11-6.29 6.29-0.11 6.29-0.11 0.11-6.7 0.109-6.7h-6.409-6.41v-6.12c0-7.615 0.52-7.08-6.88-7.08h-5.92v-5.767c0-7.755 0.703-7.033-6.843-7.033h-6.357v-6.4-6.4h-13.2-13.2v6.4m-51.69 0.51l0.11 6.31-6.31-0.11-6.31-0.11-0.111-5.782c-0.146-7.571-0.824-6.859 6.402-6.728l6.109 0.11 0.11 6.31m77.49-0.11v6.2h-12.6-12.6l-0.111-5.782c-0.062-3.179-0.021-6.017 0.089-6.305 0.161-0.42 2.69-0.503 12.712-0.419l12.51 0.106v6.2m38.8 0v6.2h-6.2-6.2l-0.11-6.31-0.11-6.31 6.31 0.11 6.31 0.11v6.2m12.91 12.9l0.11 6.3h-6.21-6.21v-6.41-6.411l6.1 0.111 6.1 0.11 0.11 6.3m-116.31 19.506v25.605l-12.5-0.105-12.5-0.106-0.11-6.29-0.11-6.29 6.31-0.11 6.31-0.11v-6.2-6.2l-6.3-0.11-6.3-0.11v6.21 6.21h-6.4-6.4v-12.547-12.546l12.5-0.295c6.875-0.161 12.635-0.376 12.8-0.477 0.165-0.1 0.3-2.872 0.3-6.159v-5.976h6.2 6.2v25.606m38.8-19.406v6.2h-6.2-6.2v-6.2-6.2h6.2 6.2v6.2m38.8 0v6.2h-6.2-6.2v-6.2-6.2h6.2 6.2v6.2m-129.3 25.7l0.104 19.3h-6.204-6.204v-19.133c0-10.524 0.125-19.258 0.277-19.411 0.152-0.152 2.897-0.227 6.1-0.166l5.823 0.11 0.104 19.3m180.85-18.954c0.326 0.393 0.424 5.785 0.349 19.3l-0.104 18.754-6.3 0.11-6.3 0.11v-19.143c0-10.529 0.12-19.264 0.267-19.41 0.553-0.554 11.609-0.298 12.088 0.279m-38.665 6.154l0.11 6.3 6.4 0.2 6.4 0.2v6 6l-5.972 0.111c-7.56 0.141-7.028-0.4-7.028 7.148v6.162l-6.1-0.111-6.1-0.11-0.104-19.1-0.104-19.1h6.194 6.194l0.11 6.3m-51.6 12.8l0.11 6.3 12.8 0.2 12.8 0.2v6.2 6.2h-19-19l-0.106-12.196c-0.058-6.708-0.019-12.423 0.087-12.7 0.144-0.374 1.737-0.504 6.196-0.504h6.003l0.11 6.3m77.416 32.4l-0.106 12.7-6.1 0.11-6.1 0.111v-12.811-12.81h6.206 6.205l-0.105 12.7m-141.83-0.22c-0.671 0.671-0.671 12.369 0 13.04 0.332 0.332 2.373 0.48 6.6 0.48h6.12v6.4 6.4h13.2 13.2v-6.4-6.4h6.12c7.624 0 7.08 0.538 7.08-7 0-7.521 0.51-7-6.847-7-7.894 0-7.153-0.709-7.153 6.843v6.357h-12.4-12.4v-6.12c0-7.624 0.538-7.08-7-7.08-4.164 0-6.189 0.149-6.52 0.48m12.72 6.52v6.2h-6.2-6.2v-6.2-6.2h6.2 6.2v6.2m38.8 0v6.2h-6.2-6.2v-6.2-6.2h6.2 6.2v6.2m-154.62 7.094c-0.108 0.283-0.149 6.002-0.091 12.71l0.106 12.196 6.4 0.2 6.4 0.2 0.11 6.3 0.11 6.3 5.89 6e-3c7.462 8e-3 6.846-0.593 6.979 6.811l0.111 6.183 12.71 0.106 12.71 0.105-0.11 6.295-0.11 6.294-6.3 0.11-6.3 0.11v12.996 12.995l12.9-0.105 12.9-0.106v-6.4-6.4l-6.2-0.2-6.2-0.2-0.11-6.1-0.111-6.1 5.911-6e-3c7.568-8e-3 6.953 0.625 6.821-7.024l-0.111-6.37-6.5-0.11-6.5-0.11v-6.19-6.19l-5.9-6e-3c-7.474-8e-3 -6.856 0.594-6.989-6.811l-0.111-6.183-6.29-0.11-6.29-0.11-0.11-6.29-0.11-6.29-6.2-0.2-6.2-0.2-0.2-6.2-0.2-6.2-6.309-0.11c-4.852-0.085-6.354 8e-3 -6.506 0.404m141.62 5.706v6l-12.7 0.106-12.7 0.105v-5.939c0-3.266 0.123-6.061 0.272-6.211 0.15-0.15 5.865-0.225 12.7-0.167l12.428 0.106v6m-77.4 51.8v6h-6-6v-6-6h6 6v6m232.09 12.5l0.11 6.5 19.4 0.2 19.4 0.2 0.11 6.3 0.11 6.3 18.89 6e-3c10.39 3e-3 19.11 0.146 19.379 0.317 0.345 0.219 0.523 2.202 0.6 6.694l0.111 6.383 6.3 0.11 6.3 0.11v-13.41-13.41h-25.4-25.4v-6.4-6.4h-20.01-20.01l0.11 6.5m-218.71-5.592c-0.112 0.291-0.153 3.131-0.091 6.31l0.111 5.782 6.31 0.11 6.31 0.11-0.11-6.31-0.11-6.31-6.109-0.11c-4.774-0.087-6.152 5e-3 -6.311 0.418m51.265 0.119c-0.135 0.351-0.245 3.229-0.245 6.396v5.757l-6.3 0.11-6.3 0.11v6.4 6.4l6.3 0.11 6.3 0.11v12.51c0 9.197 0.127 12.637 0.48 12.99 0.332 0.332 2.375 0.48 6.606 0.48h6.125l-0.105 12.7-0.106 12.7-6.09 0.11c-7.206 0.131-6.469 0.946-6.613-7.31l-0.097-5.6-6.2-0.2-6.2-0.2-0.106-12.58c-0.079-9.453-0.228-12.658-0.6-12.894-0.652-0.414-24.346-0.407-25 7e-3 -0.394 0.25-0.482 3.142-0.4 13.094l0.106 12.773 6.25 0.11 6.249 0.11 0.295 12.79 0.295 12.79h9.491c5.22 0 13.84 0.119 19.155 0.264l9.665 0.264v-6.67-6.669l12.9 0.105 12.9 0.106 0.2 6.2 0.2 6.2h19 19l0.11-6.29 0.11-6.289-6.11-0.111-6.11-0.11-0.2-6.4-0.2-6.4-6.4-0.2-6.4-0.2-0.11-6.1-0.111-6.1h6.162c4.728 0 6.267-0.127 6.616-0.548 0.323-0.39 0.424-4.171 0.349-13.1l-0.106-12.552-6.4-0.2-6.4-0.2-0.2-6.2-0.2-6.2h-6.4-6.4l-0.106 12.7-0.105 12.7h-6.191-6.19l-0.104-19.1-0.104-19.1-12.855-0.105c-11.462-0.095-12.882-0.037-13.1 0.532m-77.755 6.073l0.11 6.3 6.4 0.2 6.4 0.2 0.111 5.9 0.11 5.9h-12.61-12.611v-12.4-12.4h5.99 5.99l0.11 6.3m103.11 12.69v18.99l-6.3 0.11-6.3 0.11-0.11 6.3-0.11 6.3h-5.99-5.99v-12.757c0-11.264-0.074-12.786-0.633-13-0.348-0.134-3.228-0.243-6.4-0.243h-5.767v-5.99-5.99l6.3-0.11 6.3-0.11 0.11-6.3 0.11-6.3h12.39 12.39v18.99m116.09-0.49l0.11 6.5 6.6 0.2 6.6 0.2 0.111 5.969c0.061 3.283-0.029 6.102-0.2 6.265-0.171 0.162-5.936 0.425-12.811 0.584l-12.5 0.289v6.296 6.296l12.8 0.295 12.8 0.295v6.15 6.15l-12.7 0.105-12.7 0.106-0.11 6.29-0.11 6.289 6.11 0.111 6.11 0.11 0.2 6.4 0.2 6.4h25.8 25.8l0.2-6.2 0.2-6.2 12.657-0.349 12.656-0.35 0.294-12.75 0.294-12.751h6.15 6.149v-6.349-6.35l-12.8-0.295-12.8-0.295v-6.09-6.09l-18.9-0.265c-10.395-0.146-22.005-0.265-25.8-0.266h-6.9v-6.6-6.6h-6.81-6.81l0.11 6.5m-179.91-5.592c-0.112 0.291-0.153 3.131-0.091 6.31l0.111 5.782 6.31 0.11 6.31 0.11-0.11-6.31-0.11-6.31-6.109-0.11c-4.774-0.087-6.152 5e-3 -6.311 0.418m89.731 6.275c0.133 7.405-0.485 6.803 6.989 6.811l5.9 6e-3v12.351 12.351l-12.6 0.295-12.6 0.295v6.29 6.29l9.065 0.264c4.985 0.145 10.655 0.264 12.6 0.264h3.535v6.2 6.2h-6.5c-3.575-1e-3 -15.008-0.12-25.406-0.266l-18.905-0.265 0.105-12.234 0.106-12.235 6.183-0.111c7.404-0.133 6.803 0.483 6.811-6.979l6e-3 -5.89 6.3-0.11 6.3-0.11 0.106-12.911 0.105-12.91 5.895 0.11 5.894 0.111 0.111 6.183m64.969 6.097c-0.33 0.33-0.48 2.329-0.48 6.4v5.92h-5.992c-7.133 0-6.489-0.774-6.323 7.6l0.115 5.8h6.2 6.2l0.2-6.2 0.2-6.2 6.3-0.11 6.3-0.11v-6.79-6.79h-6.12c-4.227 0-6.268 0.148-6.6 0.48m64.32 6.733c0 4.971-0.104 6.052-0.599 6.242-0.33 0.126-5.955 0.076-12.5-0.113l-11.901-0.342-0.111-5.9-0.11-5.9h12.61 12.611v6.013m-155 12.787v6.2h-6-6l-0.111-5.782c-0.146-7.563-0.794-6.86 6.203-6.729l5.908 0.111v6.2m142.11 0.1l0.11 6.3h-6.21-6.21v-6.41-6.411l6.1 0.111 6.1 0.11 0.11 6.3m-180.71 6.69v12.79l6.3 0.11 6.3 0.11 0.11 6.1 0.111 6.1h-12.411-12.41v-6.12c0-7.63 0.55-7.08-7.08-7.08h-6.12v-12.4-12.4h12.6 12.6v12.79m167.6-6.79v6h-6.2-6.2v-6-6h6.2 6.2v6m64.665 3.3c-0.145 5.115-0.264 10.78-0.264 12.59l-1e-3 3.289-6.1 0.111-6.1 0.11-0.11 6.1-0.111 6.1h-3.125c-1.718 0-7.478 0.119-12.8 0.264l-9.675 0.265 0.111-6.365 0.11-6.364 6.29-0.11 6.29-0.11 0.11-6.29 0.11-6.29 6.3-0.11 6.3-0.11v-6.19-6.19h6.464 6.464l-0.263 9.3m-128.39 16.161c-0.149 0.15-0.272 3.032-0.272 6.406v6.133h12.81 12.81l-0.11-6.3-0.11-6.3-12.428-0.106c-6.835-0.058-12.55 0.017-12.7 0.167m89.728 19.139v6.2h-19-19v-6.2-6.2h19 19v6.2" fill="#acacac"/>
<path d="m180.8 32.4v6h12.8 12.8v-6-6h-12.8-12.8v6m-25.69 90.7l-0.11 6.3-19.1 0.104-19.1 0.104v5.986 5.986l6.3 0.11 6.3 0.11 0.11 6.29 0.11 6.29 6.29 0.11 6.29 0.11v26 26l-12.973 0.106c-10.112 0.082-13.044-6e-3 -13.294-0.4-0.176-0.278-0.324-3.156-0.327-6.396l-6e-3 -5.89-6.3-0.11-6.3-0.11-0.106-12.973c-0.082-10.112 6e-3 -13.044 0.4-13.294 0.278-0.176 3.256-0.324 6.616-0.327l6.111-6e-3 -0.111-6.1-0.11-6.1-12.455-0.106c-9.885-0.083-12.496 1e-3 -12.653 0.411-0.109 0.284-0.103 11.892 0.014 25.796l0.213 25.279 6.041 0.11 6.04 0.11v6.4 6.4h-6.2-6.2l-0.2-6.2-0.2-6.2-6.1-0.11-6.1-0.111v12.6 12.601l6.3 0.11 6.3 0.11 0.11 6.3 0.11 6.3h12.747c11.255 0 12.776 0.074 12.99 0.633 0.134 0.348 0.243 3.228 0.243 6.4v5.767h44.59 44.59l0.11-6.3 0.11-6.3 12.8-0.2 12.8-0.2 0.11-6.29 0.11-6.29 6.29-0.11 6.29-0.11 0.2-12.8 0.2-12.8 6.3-0.11 6.3-0.11v-18.79-18.79l-5.9-6e-3c-7.474-8e-3 -6.856 0.594-6.989-6.811l-0.111-6.183-6.3-0.11-6.3-0.11v-6.39-6.39h-6.357c-7.546 0-6.843 0.722-6.843-7.027v-5.762l-12.7-0.105-12.7-0.106-0.11-6.3-0.11-6.3h-18.98-18.98l-0.11 6.3m51.69 24.9v6.4h6.357c7.546 0 6.843-0.722 6.843 7.033v5.767h5.92c7.4 0 6.88-0.535 6.88 7.08v6.12h6.41 6.409l-0.109 6.7-0.11 6.7-6.29 0.11-6.29 0.11-0.11 6.29-0.11 6.29-6.4 0.2-6.4 0.2-0.111 5.773c-0.141 7.292 0.31 6.828-6.638 6.821-7.176-8e-3 -6.607 0.551-6.74-6.611l-0.111-5.983-19.179-0.104c-14.733-0.08-19.252-0.219-19.494-0.6-0.417-0.656-0.408-24.749 9e-3 -25.406 0.246-0.388 1.906-0.484 6.894-0.4l6.57 0.11 0.11 6.3 0.11 6.3h12.78 12.78l0.11 6.5 0.11 6.5 5.9 0.111 5.9 0.11v-19.01-19.011h-5.92c-7.4 0-6.88 0.535-6.88-7.08v-6.12h-12.4-12.4v6.12c0 7.624 0.538 7.08-7 7.08-7.521 0-7 0.51-7-6.847 0-7.894-0.709-7.153 6.843-7.153h6.357v-6.4-6.4h13.2 13.2v6.4m-77.68 71.28c0.332 0.332 0.48 2.373 0.48 6.6v6.12h12.4 12.4v-6.357c0-7.552-0.741-6.843 7.153-6.843 7.357 0 6.847-0.521 6.847 7 0 7.538 0.544 7-7.08 7h-6.12v6.4 6.4h-13.2-13.2v-6.4-6.4h-6.12c-7.624 0-7.08 0.538-7.08-7 0-7.532-0.532-7 7-7 4.164 0 6.189 0.149 6.52 0.48m-63.92 71.12v6h6 6v-6-6h-6-6v6m-13.2 19.2v12.4h12.611 12.61l-0.11-5.9-0.111-5.9-6.4-0.2-6.4-0.2-0.11-6.3-0.11-6.3h-5.99-5.99v12.4m90.31-6.1l-0.11 6.3-6.3 0.11-6.3 0.11v5.99 5.99h5.767c3.172 0 6.052 0.109 6.4 0.243 0.559 0.214 0.633 1.736 0.633 13v12.757h5.99 5.99l0.11-6.3 0.11-6.3 6.3-0.11 6.3-0.11v-18.99-18.99h-12.39-12.39l-0.11 6.3m38.796 19.389l-0.106 12.911-6.3 0.11-6.3 0.11-6e-3 5.89c-8e-3 7.462 0.593 6.846-6.811 6.979l-6.183 0.111-0.106 12.235-0.105 12.234 18.905 0.265c10.398 0.146 21.831 0.265 25.406 0.266h6.5v-6.2-6.2h-3.535c-1.945 0-7.615-0.119-12.6-0.264l-9.065-0.264v-6.29-6.29l12.6-0.295 12.6-0.295v-12.351-12.351l-5.9-6e-3c-7.474-8e-3 -6.856 0.594-6.989-6.811l-0.111-6.183-5.894-0.111-5.895-0.11-0.105 12.91m116.18 6.211l0.111 5.9 11.901 0.342c6.545 0.189 12.17 0.239 12.5 0.113 0.495-0.19 0.599-1.271 0.599-6.242v-6.013h-12.611-12.61l0.11 5.9m-193.69 19.3v12.4h6.12c7.63 0 7.08-0.55 7.08 7.08v6.12h12.41 12.411l-0.111-6.1-0.11-6.1-6.3-0.11-6.3-0.11v-12.79-12.79h-12.6-12.6v12.4m180.4-6.4v6h6.2 6.2v-6-6h-6.2-6.2v6m64.4 0.19v6.19l-6.3 0.11-6.3 0.11-0.11 6.29-0.11 6.29-6.29 0.11-6.29 0.11-0.11 6.364-0.111 6.365 9.675-0.265c5.322-0.145 11.082-0.264 12.8-0.264h3.125l0.111-6.1 0.11-6.1 6.1-0.11 6.1-0.111 1e-3 -3.289c0-1.81 0.119-7.475 0.264-12.59l0.263-9.3h-6.464-6.464v6.19m-64 38.41v6.2h19 19v-6.2-6.2h-19-19v6.2" fill="#fcfcfc"/>
<path d="m180 6.2v6.2h-12.8-12.8v6.4 6.4h-13-13v6.4 6.4h-32.2-32.2v6.6 6.6h-13-13v6.4 6.4h-12.8-12.8v6.4 6.4h-6.2-6.2v13.6 13.6h6.2 6.2v6.4 6.4h6.4 6.4v6.4 6.4h6.4 6.4v6.4 6.4h6.6 6.6v12.4 12.4h-6.6-6.6v12.8 12.8h-6.4-6.4v7.2 7.2h6.4 6.4v6.4 6.4h6.6 6.6v6.4 6.4h6.4 6.4v6.6 6.6h6.4 6.4v6.4 6.4h6.4 6.4v5.8 5.8h-12.2-12.2v-6.4-6.4h-6.39-6.39l-0.11-6.5-0.11-6.5-6.5-0.11-6.5-0.11v-6.39-6.39h-6.4-6.4v-6.4-6.4h-7-7v6.4 6.4h-6.2-6.2v13.6 13.6h6.2 6.2v6.4 6.4h6.4 6.4v6.4 6.4h6.4 6.4v19.4 19.4h6.6 6.6v6.4 6.4h19.2 19.2v13 13h6.6 6.6v12.8 12.8h6.4 6.4v6.2 6.2h13.41 13.41l-0.11-6.3-0.11-6.3-12.856-0.105-12.855-0.106-0.295-12.785-0.295-12.784-6.249-0.11-6.25-0.11-0.106-12.773c-0.082-9.952 6e-3 -12.844 0.4-13.094 0.654-0.414 24.348-0.421 25-7e-3 0.372 0.236 0.521 3.441 0.6 12.894l0.106 12.58 6.2 0.2 6.2 0.2 0.097 5.6c0.144 8.256-0.593 7.441 6.613 7.31l6.09-0.11 0.106-12.7 0.105-12.7h-6.125c-4.231 0-6.274-0.148-6.606-0.48-0.353-0.353-0.48-3.793-0.48-12.99v-12.51l-6.3-0.11-6.3-0.11v-6.4-6.4l6.3-0.11 6.3-0.11 6e-3 -5.89c3e-3 -3.24 0.151-6.118 0.327-6.396 0.25-0.394 3.142-0.482 13.094-0.4l12.773 0.106 0.104 19.1 0.104 19.1h6.19 6.191l0.105-12.7 0.106-12.7h6.4 6.4l0.2 6.2 0.2 6.2 6.4 0.2 6.4 0.2 0.106 12.552c0.075 8.929-0.026 12.71-0.349 13.1-0.349 0.421-1.888 0.548-6.616 0.548h-6.162l0.111 6.1 0.11 6.1 6.4 0.2 6.4 0.2 0.2 6.4 0.2 6.4 6.11 0.11 6.11 0.111-0.11 6.289-0.11 6.29h-19-19l-0.2-6.2-0.2-6.2-12.9-0.106-12.9-0.105v6.605 6.606h12.6 12.6v6.2 6.2h33 33v-6.2-6.2h12.2 12.2v6.2 6.2h32.8 32.8v-6.2-6.2h13 13v-6.4-6.4h6.4 6.4v-12.8-12.8h6.452 6.452l-0.296-13.1c-0.205-9.079-0.435-13.19-0.752-13.394-0.251-0.162-8.961-0.297-19.356-0.3l-18.9-6e-3v-6.213c0-4.62-0.128-6.252-0.5-6.368-0.275-0.086-11.885-0.244-25.8-0.352l-25.3-0.196v6.565 6.564h6.9c3.795 1e-3 15.405 0.12 25.8 0.266l18.9 0.265v6.09 6.09l12.8 0.295 12.8 0.295v6.35 6.349h-6.149-6.15l-0.294 12.751-0.294 12.75-12.656 0.35-12.657 0.349-0.2 6.2-0.2 6.2h-25.8-25.8l-0.2-6.4-0.2-6.4-6.11-0.11-6.11-0.111 0.11-6.289 0.11-6.29 12.7-0.106 12.7-0.105v-6.15-6.15l-12.8-0.295-12.8-0.295v-6.296-6.296l12.5-0.295c6.875-0.161 12.635-0.376 12.8-0.477 0.165-0.1 0.3-2.861 0.3-6.135s-0.135-6.034-0.3-6.132c-0.165-0.099-6.015-0.312-13-0.473l-12.7-0.293v6.839 6.839l-6.3 0.11-6.3 0.11-0.2 6.2-0.2 6.2h-6.2-6.2l0.093-6.4c0.051-3.52 0.195-9.145 0.32-12.5l0.227-6.1h5.718c7.945 0 7.042 3.479 7.042-27.131v-25.669h-6.4-6.4v-5.8-5.8h19.2 19.2v-6.4-6.4h13 13v-6.6-6.6h6.4 6.4v-6.4-6.4h6.4 6.4v-6.4-6.4h6.6 6.6v-26.4-26.4h-6.6-6.6v-6.6-6.6h-6.4-6.4v-6.4-6.4h-6.4-6.4v-12.8-12.8h-6.4-6.4v-6-6h6.4 6.4v-6.4-6.4h5.8 5.8v6.4 6.4h13 13v6.6 6.6h7 7v-13.6-13.6h-6.4-6.4v-12.8-12.8h-6.6-6.6v-6.6-6.6h-6.4-6.4v-6.4-6.4h-12.8-12.8v-6.4-6.4h-19.4-19.4v-6.2-6.2h-39.4-39.4v6.2m29.9 19.665l9.3 0.263v6.339 6.339l-25.5-0.103-25.5-0.103-0.11-6.29-0.11-6.29 6.31-0.121c14.117-0.271 26.811-0.283 35.61-0.034m35.21 19.429l0.11 6.295 12.69 0.105 12.69 0.106 0.11 6.306 0.11 6.305-12.71-0.105-12.71-0.106-0.11-6.3-0.11-6.3h-12.79-12.79v-6.406-6.405l12.7 0.105 12.7 0.106 0.11 6.294m38.452 19.66c0.313 0.377 0.424 2.456 0.349 6.5l-0.111 5.946h-6.2-6.2l-0.11-6.5-0.11-6.5h5.961c4.592 0 6.067 0.127 6.421 0.554m-77.072 18.946l0.11 6.3 12.8 0.2 12.8 0.2 0.11 6.29 0.11 6.29 6.29 0.11 6.29 0.11 0.111 6.183c0.133 7.404-0.483 6.803 6.979 6.811l5.89 6e-3 0.11 6.3 0.11 6.3 6.3 0.11 6.3 0.11 6e-3 5.89c8e-3 7.462-0.593 6.846 6.811 6.979l6.183 0.111 0.11 6.29 0.11 6.29 6.29 0.11 6.29 0.11 0.111 6.183c0.133 7.404-0.483 6.803 6.979 6.811l5.89 6e-3 0.11 6.3 0.11 6.3 6.3 0.11 6.3 0.11v12.78 12.78l-6.3 0.11-6.3 0.11-0.11 6.3-0.11 6.3-5.89 6e-3c-7.462 8e-3 -6.846-0.593-6.979 6.811l-0.111 6.183-12.8 0.2-12.8 0.2-0.2 6.2-0.2 6.2h-12.6-12.6l-0.11-6.31-0.11-6.31-6.29 0.11-6.29 0.11-0.111 5.972c-0.145 7.805 1.329 7.028-13.338 7.028h-12.351v5.951c0 4.525-0.13 6.059-0.543 6.402-0.397 0.329-12.559 0.423-45.3 0.349l-44.757-0.102-0.11-6.3-0.11-6.3h-12.576c-14.923 0-13.404 0.835-13.404-7.364v-5.816l-6.3-0.11-6.3-0.11-0.106-12.9-0.105-12.9h-5.762c-7.738 0-7.027-0.672-7.027 6.643v6.157h-6.39-6.39l-0.11-6.3-0.11-6.3-6.3-0.11-6.3-0.11v-6.38-6.38l6.3-0.11 6.3-0.11 0.106-12.69 0.105-12.69 6.295-0.11 6.294-0.11 0.2-25.6 0.2-25.6 5.972-0.111c7.509-0.14 6.983 0.38 7.118-7.03l0.11-6.059 6.2-0.2 6.2-0.2 0.2-6.2 0.2-6.2 12.58-0.106c9.453-0.079 12.658-0.228 12.894-0.6 0.172-0.272 0.317-3.149 0.32-6.394l6e-3 -5.9h44.99 44.99l0.11 6.3m90.11 0.1v6.2h-6.2-6.2l-0.11-6.31-0.11-6.31 6.31 0.11 6.31 0.11v6.2m-141.53 19.463c-0.149 0.149-0.271 3.03-0.271 6.404v6.133h19.41 19.41l-0.11-6.3-0.11-6.3-19.029-0.104c-10.467-0.057-19.152 0.018-19.3 0.167m-38.63 13.088c-0.316 0.38-0.428 2.385-0.352 6.304l0.111 5.745h19.2 19.2v-6.2-6.2l-18.848-0.104c-15.735-0.087-18.924-0.012-19.311 0.455m77.335-0.033c-0.109 0.286-0.149 3.121-0.087 6.3l0.111 5.782h12.8 12.8l0.111-5.745c0.076-3.896-0.037-5.924-0.349-6.3-0.655-0.791-25.083-0.825-25.386-0.037m-103.38 19.082v6.4h-6.4-6.4v6.41 6.41l6.3-0.11 6.3-0.11 0.11-6.3 0.11-6.3h12.79 12.79v-6.4-6.4h-12.8-12.8v6.4m129.2-0.21v6.21h6.41 6.411l-0.111-6.1-0.11-6.1-6.3-0.11-6.3-0.11v6.21m-103.42 7.118c-0.112 0.291-0.153 3.131-0.091 6.31l0.111 5.782 6.31 0.11 6.31 0.11-0.11-6.31-0.11-6.31-6.109-0.11c-4.774-0.087-6.152 5e-3 -6.311 0.418m64.798 5e-3c-0.11 0.288-0.151 3.126-0.089 6.305l0.111 5.782h12.6 12.6v-6.2-6.2l-12.51-0.106c-10.022-0.084-12.551-1e-3 -12.712 0.419m51.512 5.777l0.11 6.31h6.2 6.2v-6.2-6.2l-6.31-0.11-6.31-0.11 0.11 6.31m13.11 12.9v6.41h6.21 6.21l-0.11-6.3-0.11-6.3-6.1-0.11-6.1-0.111v6.411m-116.4-0.014c0 3.287-0.135 6.059-0.3 6.159-0.165 0.101-5.925 0.316-12.8 0.477l-12.5 0.295v12.546 12.547h6.4 6.4v-6.21-6.21l6.3 0.11 6.3 0.11v6.2 6.2l-6.31 0.11-6.31 0.11 0.11 6.29 0.11 6.29 12.5 0.106 12.5 0.105v-25.605-25.606h-6.2-6.2v5.976m38.8 0.224v6.2h6.2 6.2v-6.2-6.2h-6.2-6.2v6.2m38.8 0v6.2h6.2 6.2v-6.2-6.2h-6.2-6.2v6.2m-128.92 6.456c-0.152 0.153-0.277 8.887-0.277 19.411v19.133h6.204 6.204l-0.104-19.3-0.104-19.3-5.823-0.11c-3.203-0.061-5.948 0.014-6.1 0.166m180.79 0.011c-0.147 0.146-0.267 8.881-0.267 19.41v19.143l6.3-0.11 6.3-0.11 0.104-18.754c0.075-13.515-0.023-18.907-0.349-19.3-0.479-0.577-11.535-0.833-12.088-0.279m-38.971 19.233l0.104 19.1 6.1 0.11 6.1 0.111v-6.162c0-7.548-0.532-7.007 7.028-7.148l5.972-0.111v-6-6l-6.4-0.2-6.4-0.2-0.11-6.3-0.11-6.3h-6.194-6.194l0.104 19.1m-51.515-5.796c-0.106 0.277-0.145 5.992-0.087 12.7l0.106 12.196h19 19v-6.2-6.2l-12.8-0.2-12.8-0.2-0.11-6.3-0.11-6.3h-6.003c-4.459 0-6.052 0.13-6.196 0.504m77.419 38.306v12.811l6.1-0.111 6.1-0.11 0.106-12.7 0.105-12.7h-6.205-6.206v12.81m-129.2 6.19v6.2h6.2 6.2v-6.2-6.2h-6.2-6.2v6.2m38.8 0v6.2h6.2 6.2v-6.2-6.2h-6.2-6.2v6.2m-129.2 13l0.2 6.2 6.2 0.2 6.2 0.2 0.11 6.29 0.11 6.29 6.29 0.11 6.29 0.11 0.111 6.183c0.133 7.405-0.485 6.803 6.989 6.811l5.9 6e-3v6.19 6.19l6.5 0.11 6.5 0.11 0.111 6.37c0.132 7.649 0.747 7.016-6.821 7.024l-5.911 6e-3 0.111 6.1 0.11 6.1 6.2 0.2 6.2 0.2v6.4 6.4l-12.9 0.106-12.9 0.105v-12.995-12.996l6.3-0.11 6.3-0.11 0.11-6.294 0.11-6.295-12.71-0.105-12.71-0.106-0.111-6.183c-0.133-7.404 0.483-6.803-6.979-6.811l-5.89-6e-3 -0.11-6.3-0.11-6.3-6.4-0.2-6.4-0.2-0.106-12.196c-0.058-6.708-0.017-12.427 0.091-12.71 0.152-0.396 1.654-0.489 6.506-0.404l6.309 0.11 0.2 6.2m103.47-6.139c-0.149 0.15-0.272 2.945-0.272 6.211v5.939l12.7-0.105 12.7-0.106v-6-6l-12.428-0.106c-6.835-0.058-12.55 0.017-12.7 0.167m-26.362 70.649l0.11 6.31-6.31-0.11-6.31-0.11-0.111-5.782c-0.146-7.571-0.824-6.859 6.402-6.728l6.109 0.11 0.11 6.31m12.8 12.8l0.11 6.31-6.31-0.11-6.31-0.11-0.111-5.782c-0.146-7.571-0.824-6.859 6.402-6.728l6.109 0.11 0.11 6.31m39.47 19.998c-0.112 0.291-0.153 3.131-0.091 6.31l0.111 5.782h6 6v-6.2-6.2l-5.908-0.111c-4.611-0.086-5.953 6e-3 -6.112 0.419m141.82 5.882v6.41h6.21 6.21l-0.11-6.3-0.11-6.3-6.1-0.11-6.1-0.111v6.411m-39.29 25.71l0.11 6.3h-12.81-12.81v-6.133c0-3.374 0.123-6.256 0.272-6.406 0.15-0.15 5.865-0.225 12.7-0.167l12.428 0.106 0.11 6.3" fill="#040404"/>
</g>
</svg>
