<svg id="svg" version="1.1" width="400" height="400" viewBox="0 0 400 400" xmlns="http://www.w3.org/2000/svg" xmlns:xlink="http://www.w3.org/1999/xlink" ><g id="svgg"><path id="path0" d="M174.290 25.899 L 167.980 26.020 168.090 32.310 L 168.200 38.600 193.700 38.703 L 219.200 38.806 219.200 32.467 L 219.200 26.128 209.900 25.865 C 201.101 25.616,188.407 25.628,174.290 25.899 M206.400 32.400 L 206.400 38.400 193.600 38.400 L 180.800 38.400 180.800 32.400 L 180.800 26.400 193.600 26.400 L 206.400 26.400 206.400 32.400 M219.600 45.194 L 219.600 51.600 232.390 51.600 L 245.180 51.600 245.290 57.900 L 245.400 64.200 258.110 64.306 L 270.820 64.411 270.710 58.106 L 270.600 51.800 257.910 51.694 L 245.220 51.589 245.110 45.294 L 245.000 39.000 232.300 38.894 L 219.600 38.789 219.600 45.194 M271.290 70.900 L 271.400 77.400 277.600 77.400 L 283.800 77.400 283.911 71.454 C 284.052 63.877,284.554 64.400,277.141 64.400 L 271.180 64.400 271.290 70.900 M116.394 83.500 C 116.391 86.745,116.246 89.622,116.074 89.894 C 115.838 90.266,112.633 90.415,103.180 90.494 L 90.600 90.600 90.400 96.800 L 90.200 103.000 84.000 103.200 L 77.800 103.400 77.690 109.459 C 77.555 116.869,78.081 116.349,70.572 116.489 L 64.600 116.600 64.400 142.200 L 64.200 167.800 57.906 167.910 L 51.611 168.020 51.506 180.710 L 51.400 193.400 45.100 193.510 L 38.800 193.620 38.800 200.000 L 38.800 206.380 45.100 206.490 L 51.400 206.600 51.510 212.900 L 51.620 219.200 58.010 219.200 L 64.400 219.200 64.400 213.043 C 64.400 205.728,63.689 206.400,71.427 206.400 L 77.189 206.400 77.294 219.300 L 77.400 232.200 83.700 232.310 L 90.000 232.420 90.000 238.236 C 90.000 246.435,88.481 245.600,103.404 245.600 L 115.980 245.600 116.090 251.900 L 116.200 258.200 160.957 258.302 C 193.698 258.376,205.860 258.282,206.257 257.953 C 206.670 257.610,206.800 256.076,206.800 251.551 L 206.800 245.600 219.151 245.600 C 233.818 245.600,232.344 246.377,232.489 238.572 L 232.600 232.600 238.890 232.490 L 245.180 232.380 245.290 238.690 L 245.400 245.000 258.000 245.000 L 270.600 245.000 270.800 238.800 L 271.000 232.600 283.800 232.400 L 296.600 232.200 296.711 226.017 C 296.844 218.613,296.228 219.214,303.690 219.206 L 309.580 219.200 309.690 212.900 L 309.800 206.600 316.100 206.490 L 322.400 206.380 322.400 193.600 L 322.400 180.820 316.100 180.710 L 309.800 180.600 309.690 174.300 L 309.580 168.000 303.690 167.994 C 296.228 167.986,296.844 168.587,296.711 161.183 L 296.600 155.000 290.310 154.890 L 284.020 154.780 283.910 148.490 L 283.800 142.200 277.617 142.089 C 270.213 141.956,270.814 142.572,270.806 135.110 L 270.800 129.220 264.500 129.110 L 258.200 129.000 258.090 122.700 L 257.980 116.400 252.090 116.394 C 244.628 116.386,245.244 116.987,245.111 109.583 L 245.000 103.400 238.710 103.290 L 232.420 103.180 232.310 96.890 L 232.200 90.600 219.400 90.400 L 206.600 90.200 206.490 83.900 L 206.380 77.600 161.390 77.600 L 116.400 77.600 116.394 83.500 M284.090 83.890 L 284.200 90.200 290.400 90.200 L 296.600 90.200 296.600 84.000 L 296.600 77.800 290.290 77.690 L 283.980 77.580 284.090 83.890 M193.510 109.700 L 193.620 116.000 174.210 116.000 L 154.800 116.000 154.800 109.867 C 154.800 106.493,154.922 103.612,155.071 103.463 C 155.219 103.314,163.904 103.239,174.371 103.296 L 193.400 103.400 193.510 109.700 M154.600 122.400 L 154.600 128.600 135.400 128.600 L 116.200 128.600 116.089 122.855 C 116.013 118.936,116.125 116.931,116.441 116.551 C 116.828 116.084,120.017 116.009,135.752 116.096 L 154.600 116.200 154.600 122.400 M219.162 116.555 C 219.474 116.931,219.587 118.959,219.511 122.855 L 219.400 128.600 206.600 128.600 L 193.800 128.600 193.689 122.818 C 193.627 119.639,193.667 116.804,193.776 116.518 C 194.079 115.730,218.507 115.764,219.162 116.555 M193.290 123.100 L 193.400 129.400 206.100 129.506 L 218.800 129.611 218.800 135.373 C 218.800 143.122,218.097 142.400,225.643 142.400 L 232.000 142.400 232.000 148.790 L 232.000 155.180 238.300 155.290 L 244.600 155.400 244.711 161.583 C 244.844 168.988,244.226 168.386,251.700 168.394 L 257.600 168.400 257.600 187.190 L 257.600 205.980 251.300 206.090 L 245.000 206.200 244.800 219.000 L 244.600 231.800 238.310 231.910 L 232.020 232.020 231.910 238.310 L 231.800 244.600 219.000 244.800 L 206.200 245.000 206.090 251.300 L 205.980 257.600 161.390 257.600 L 116.800 257.600 116.800 251.833 C 116.800 248.661,116.691 245.781,116.557 245.433 C 116.343 244.874,114.822 244.800,103.567 244.800 L 90.820 244.800 90.710 238.500 L 90.600 232.200 84.300 232.090 L 78.000 231.980 78.000 219.379 L 78.000 206.779 84.100 206.890 L 90.200 207.000 90.400 213.200 L 90.600 219.400 96.800 219.400 L 103.000 219.400 103.000 213.000 L 103.000 206.600 96.960 206.490 L 90.919 206.380 90.706 181.101 C 90.589 167.197,90.583 155.589,90.692 155.305 C 90.849 154.895,93.460 154.811,103.345 154.894 L 115.800 155.000 115.910 161.100 L 116.021 167.200 109.910 167.206 C 106.550 167.209,103.572 167.357,103.294 167.533 C 102.900 167.783,102.812 170.715,102.894 180.827 L 103.000 193.800 109.300 193.910 L 115.600 194.020 115.606 199.910 C 115.609 203.150,115.757 206.028,115.933 206.306 C 116.183 206.700,119.115 206.788,129.227 206.706 L 142.200 206.600 142.200 180.600 L 142.200 154.600 135.910 154.490 L 129.620 154.380 129.510 148.090 L 129.400 141.800 123.100 141.690 L 116.800 141.580 116.800 135.594 L 116.800 129.608 135.900 129.504 L 155.000 129.400 155.110 123.100 L 155.220 116.800 174.200 116.800 L 193.180 116.800 193.290 123.100 M116.000 135.600 L 116.000 142.000 103.210 142.000 L 90.420 142.000 90.310 148.300 L 90.200 154.600 83.900 154.710 L 77.600 154.820 77.600 148.410 L 77.600 142.000 84.000 142.000 L 90.400 142.000 90.400 135.600 L 90.400 129.200 103.200 129.200 L 116.000 129.200 116.000 135.600 M232.310 135.500 L 232.421 141.600 226.010 141.600 L 219.600 141.600 219.600 135.390 L 219.600 129.180 225.900 129.290 L 232.200 129.400 232.310 135.500 M180.400 148.000 L 180.400 154.400 174.043 154.400 C 166.491 154.400,167.200 153.659,167.200 161.553 C 167.200 168.910,166.679 168.400,174.200 168.400 C 181.738 168.400,181.200 168.944,181.200 161.320 L 181.200 155.200 193.600 155.200 L 206.000 155.200 206.000 161.320 C 206.000 168.935,205.480 168.400,212.880 168.400 L 218.800 168.400 218.800 187.411 L 218.800 206.421 212.900 206.311 L 207.000 206.200 206.890 199.700 L 206.780 193.200 194.000 193.200 L 181.220 193.200 181.110 186.900 L 181.000 180.600 174.430 180.490 C 169.442 180.406,167.782 180.502,167.536 180.890 C 167.119 181.547,167.110 205.640,167.527 206.296 C 167.769 206.677,172.288 206.816,187.021 206.896 L 206.200 207.000 206.311 212.983 C 206.444 220.145,205.875 219.586,213.051 219.594 C 219.999 219.601,219.548 220.065,219.689 212.773 L 219.800 207.000 226.200 206.800 L 232.600 206.600 232.710 200.310 L 232.820 194.020 239.110 193.910 L 245.400 193.800 245.510 187.100 L 245.619 180.400 239.210 180.400 L 232.800 180.400 232.800 174.280 C 232.800 166.665,233.320 167.200,225.920 167.200 L 220.000 167.200 220.000 161.433 C 220.000 153.678,220.703 154.400,213.157 154.400 L 206.800 154.400 206.800 148.000 L 206.800 141.600 193.600 141.600 L 180.400 141.600 180.400 148.000 M128.710 148.510 L 128.820 154.820 122.510 154.710 L 116.200 154.600 116.089 148.818 C 115.943 141.247,115.265 141.959,122.491 142.090 L 128.600 142.200 128.710 148.510 M206.200 148.400 L 206.200 154.600 193.600 154.600 L 181.000 154.600 180.889 148.818 C 180.827 145.639,180.868 142.801,180.978 142.513 C 181.139 142.093,183.668 142.010,193.690 142.094 L 206.200 142.200 206.200 148.400 M245.000 148.400 L 245.000 154.600 238.800 154.600 L 232.600 154.600 232.490 148.290 L 232.380 141.980 238.690 142.090 L 245.000 142.200 245.000 148.400 M257.910 161.300 L 258.020 167.600 251.810 167.600 L 245.600 167.600 245.600 161.190 L 245.600 154.779 251.700 154.890 L 257.800 155.000 257.910 161.300 M141.600 180.806 L 141.600 206.411 129.100 206.306 L 116.600 206.200 116.490 199.910 L 116.380 193.620 122.690 193.510 L 129.000 193.400 129.000 187.200 L 129.000 181.000 122.700 180.890 L 116.400 180.780 116.400 186.990 L 116.400 193.200 110.000 193.200 L 103.600 193.200 103.600 180.653 L 103.600 168.107 116.100 167.812 C 122.975 167.651,128.735 167.436,128.900 167.335 C 129.065 167.235,129.200 164.463,129.200 161.176 L 129.200 155.200 135.400 155.200 L 141.600 155.200 141.600 180.806 M180.400 161.400 L 180.400 167.600 174.200 167.600 L 168.000 167.600 168.000 161.400 L 168.000 155.200 174.200 155.200 L 180.400 155.200 180.400 161.400 M219.200 161.400 L 219.200 167.600 213.000 167.600 L 206.800 167.600 206.800 161.400 L 206.800 155.200 213.000 155.200 L 219.200 155.200 219.200 161.400 M89.904 187.100 L 90.008 206.400 83.804 206.400 L 77.600 206.400 77.600 187.267 C 77.600 176.743,77.725 168.009,77.877 167.856 C 78.029 167.704,80.774 167.629,83.977 167.690 L 89.800 167.800 89.904 187.100 M270.755 168.146 C 271.081 168.539,271.179 173.931,271.104 187.446 L 271.000 206.200 264.700 206.310 L 258.400 206.420 258.400 187.277 C 258.400 176.748,258.520 168.013,258.667 167.867 C 259.220 167.313,270.276 167.569,270.755 168.146 M232.090 174.300 L 232.200 180.600 238.600 180.800 L 245.000 181.000 245.000 187.000 L 245.000 193.000 239.028 193.111 C 231.468 193.252,232.000 192.711,232.000 200.259 L 232.000 206.421 225.900 206.310 L 219.800 206.200 219.696 187.100 L 219.592 168.000 225.786 168.000 L 231.980 168.000 232.090 174.300 M180.490 187.100 L 180.600 193.400 193.400 193.600 L 206.200 193.800 206.200 200.000 L 206.200 206.200 187.200 206.200 L 168.200 206.200 168.094 194.004 C 168.036 187.296,168.075 181.581,168.181 181.304 C 168.325 180.930,169.918 180.800,174.377 180.800 L 180.380 180.800 180.490 187.100 M257.906 219.500 L 257.800 232.200 251.700 232.310 L 245.600 232.421 245.600 219.610 L 245.600 206.800 251.806 206.800 L 258.011 206.800 257.906 219.500 M116.080 219.280 C 115.409 219.951,115.409 231.649,116.080 232.320 C 116.412 232.652,118.453 232.800,122.680 232.800 L 128.800 232.800 128.800 239.200 L 128.800 245.600 142.000 245.600 L 155.200 245.600 155.200 239.200 L 155.200 232.800 161.320 232.800 C 168.944 232.800,168.400 233.338,168.400 225.800 C 168.400 218.279,168.910 218.800,161.553 218.800 C 153.659 218.800,154.400 218.091,154.400 225.643 L 154.400 232.000 142.000 232.000 L 129.600 232.000 129.600 225.880 C 129.600 218.256,130.138 218.800,122.600 218.800 C 118.436 218.800,116.411 218.949,116.080 219.280 M128.800 225.800 L 128.800 232.000 122.600 232.000 L 116.400 232.000 116.400 225.800 L 116.400 219.600 122.600 219.600 L 128.800 219.600 128.800 225.800 M167.600 225.800 L 167.600 232.000 161.400 232.000 L 155.200 232.000 155.200 225.800 L 155.200 219.600 161.400 219.600 L 167.600 219.600 167.600 225.800 M12.985 232.894 C 12.877 233.177,12.836 238.896,12.894 245.604 L 13.000 257.800 19.400 258.000 L 25.800 258.200 25.910 264.500 L 26.020 270.800 31.910 270.806 C 39.372 270.814,38.756 270.213,38.889 277.617 L 39.000 283.800 51.710 283.906 L 64.420 284.011 64.310 290.306 L 64.200 296.600 57.900 296.710 L 51.600 296.820 51.600 309.816 L 51.600 322.811 64.500 322.706 L 77.400 322.600 77.400 316.200 L 77.400 309.800 71.200 309.600 L 65.000 309.400 64.890 303.300 L 64.779 297.200 70.690 297.194 C 78.258 297.186,77.643 297.819,77.511 290.170 L 77.400 283.800 70.900 283.690 L 64.400 283.580 64.400 277.390 L 64.400 271.200 58.500 271.194 C 51.026 271.186,51.644 271.788,51.511 264.383 L 51.400 258.200 45.110 258.090 L 38.820 257.980 38.710 251.690 L 38.600 245.400 32.400 245.200 L 26.200 245.000 26.000 238.800 L 25.800 232.600 19.491 232.490 C 14.639 232.405,13.137 232.498,12.985 232.894 M154.600 238.600 L 154.600 244.600 141.900 244.706 L 129.200 244.811 129.200 238.872 C 129.200 235.606,129.323 232.811,129.472 232.661 C 129.622 232.511,135.337 232.436,142.172 232.494 L 154.600 232.600 154.600 238.600 M77.200 290.400 L 77.200 296.400 71.200 296.400 L 65.200 296.400 65.200 290.400 L 65.200 284.400 71.200 284.400 L 77.200 284.400 77.200 290.400 M309.290 302.900 L 309.400 309.400 328.800 309.600 L 348.200 309.800 348.310 316.100 L 348.420 322.400 367.310 322.406 C 377.700 322.409,386.420 322.552,386.689 322.723 C 387.034 322.942,387.212 324.925,387.289 329.417 L 387.400 335.800 393.700 335.910 L 400.000 336.020 400.000 322.610 L 400.000 309.200 374.600 309.200 L 349.200 309.200 349.200 302.800 L 349.200 296.400 329.190 296.400 L 309.180 296.400 309.290 302.900 M90.580 297.308 C 90.468 297.599,90.427 300.439,90.489 303.618 L 90.600 309.400 96.910 309.510 L 103.220 309.620 103.110 303.310 L 103.000 297.000 96.891 296.890 C 92.117 296.803,90.739 296.895,90.580 297.308 M141.845 297.427 C 141.710 297.778,141.600 300.656,141.600 303.823 L 141.600 309.580 135.300 309.690 L 129.000 309.800 129.000 316.200 L 129.000 322.600 135.300 322.710 L 141.600 322.820 141.600 335.330 C 141.600 344.527,141.727 347.967,142.080 348.320 C 142.412 348.652,144.455 348.800,148.686 348.800 L 154.811 348.800 154.706 361.500 L 154.600 374.200 148.510 374.310 C 141.304 374.441,142.041 375.256,141.897 367.000 L 141.800 361.400 135.600 361.200 L 129.400 361.000 129.294 348.420 C 129.215 338.967,129.066 335.762,128.694 335.526 C 128.042 335.112,104.348 335.119,103.694 335.533 C 103.300 335.783,103.212 338.675,103.294 348.627 L 103.400 361.400 109.650 361.510 L 115.899 361.620 116.194 374.410 L 116.489 387.200 125.980 387.200 C 131.200 387.200,139.820 387.319,145.135 387.464 L 154.800 387.728 154.800 381.058 L 154.800 374.389 167.700 374.494 L 180.600 374.600 180.800 380.800 L 181.000 387.000 200.000 387.000 L 219.000 387.000 219.110 380.710 L 219.220 374.421 213.110 374.310 L 207.000 374.200 206.800 367.800 L 206.600 361.400 200.200 361.200 L 193.800 361.000 193.690 354.900 L 193.579 348.800 199.741 348.800 C 204.469 348.800,206.008 348.673,206.357 348.252 C 206.680 347.862,206.781 344.081,206.706 335.152 L 206.600 322.600 200.200 322.400 L 193.800 322.200 193.600 316.000 L 193.400 309.800 187.000 309.800 L 180.600 309.800 180.494 322.500 L 180.389 335.200 174.198 335.200 L 168.008 335.200 167.904 316.100 L 167.800 297.000 154.945 296.895 C 143.483 296.800,142.063 296.858,141.845 297.427 M64.090 303.500 L 64.200 309.800 70.600 310.000 L 77.000 310.200 77.111 316.100 L 77.221 322.000 64.611 322.000 L 52.000 322.000 52.000 309.600 L 52.000 297.200 57.990 297.200 L 63.980 297.200 64.090 303.500 M167.200 316.190 L 167.200 335.180 160.900 335.290 L 154.600 335.400 154.490 341.700 L 154.380 348.000 148.390 348.000 L 142.400 348.000 142.400 335.243 C 142.400 323.979,142.326 322.457,141.767 322.243 C 141.419 322.109,138.539 322.000,135.367 322.000 L 129.600 322.000 129.600 316.010 L 129.600 310.020 135.900 309.910 L 142.200 309.800 142.310 303.500 L 142.420 297.200 154.810 297.200 L 167.200 297.200 167.200 316.190 M283.290 315.700 L 283.400 322.200 290.000 322.400 L 296.600 322.600 296.711 328.569 C 296.772 331.852,296.682 334.671,296.511 334.834 C 296.340 334.996,290.575 335.259,283.700 335.418 L 271.200 335.707 271.200 342.003 L 271.200 348.299 284.000 348.594 L 296.800 348.889 296.800 355.039 L 296.800 361.189 284.100 361.294 L 271.400 361.400 271.290 367.690 L 271.180 373.979 277.290 374.090 L 283.400 374.200 283.600 380.600 L 283.800 387.000 309.600 387.000 L 335.400 387.000 335.600 380.800 L 335.800 374.600 348.457 374.251 L 361.113 373.901 361.407 361.151 L 361.701 348.400 367.851 348.400 L 374.000 348.400 374.000 342.051 L 374.000 335.701 361.200 335.406 L 348.400 335.111 348.400 329.021 L 348.400 322.931 329.500 322.666 C 319.105 322.520,307.495 322.401,303.700 322.400 L 296.800 322.400 296.800 315.800 L 296.800 309.200 289.990 309.200 L 283.180 309.200 283.290 315.700 M103.380 310.108 C 103.268 310.399,103.227 313.239,103.289 316.418 L 103.400 322.200 109.710 322.310 L 116.020 322.420 115.910 316.110 L 115.800 309.800 109.691 309.690 C 104.917 309.603,103.539 309.695,103.380 310.108 M193.111 316.383 C 193.244 323.788,192.626 323.186,200.100 323.194 L 206.000 323.200 206.000 335.551 L 206.000 347.902 193.400 348.197 L 180.800 348.492 180.800 354.782 L 180.800 361.072 189.865 361.336 C 194.850 361.481,200.520 361.600,202.465 361.600 L 206.000 361.600 206.000 367.800 L 206.000 374.000 199.500 374.000 C 195.925 373.999,184.492 373.880,174.094 373.734 L 155.189 373.469 155.294 361.235 L 155.400 349.000 161.583 348.889 C 168.987 348.756,168.386 349.372,168.394 341.910 L 168.400 336.020 174.700 335.910 L 181.000 335.800 181.106 322.889 L 181.211 309.979 187.106 310.089 L 193.000 310.200 193.111 316.383 M258.080 322.480 C 257.750 322.810,257.600 324.809,257.600 328.880 L 257.600 334.800 251.608 334.800 C 244.475 334.800,245.119 334.026,245.285 342.400 L 245.400 348.200 251.600 348.200 L 257.800 348.200 258.000 342.000 L 258.200 335.800 264.500 335.690 L 270.800 335.580 270.800 328.790 L 270.800 322.000 264.680 322.000 C 260.453 322.000,258.412 322.148,258.080 322.480 M322.400 329.213 C 322.400 334.184,322.296 335.265,321.801 335.455 C 321.471 335.581,315.846 335.531,309.301 335.342 L 297.400 335.000 297.289 329.100 L 297.179 323.200 309.789 323.200 L 322.400 323.200 322.400 329.213 M167.400 342.000 L 167.400 348.200 161.400 348.200 L 155.400 348.200 155.289 342.418 C 155.143 334.855,154.495 335.558,161.492 335.689 L 167.400 335.800 167.400 342.000 M309.510 342.100 L 309.620 348.400 303.410 348.400 L 297.200 348.400 297.200 341.990 L 297.200 335.579 303.300 335.690 L 309.400 335.800 309.510 342.100 M128.800 348.790 L 128.800 361.580 135.100 361.690 L 141.400 361.800 141.510 367.900 L 141.621 374.000 129.210 374.000 L 116.800 374.000 116.800 367.880 C 116.800 360.250,117.350 360.800,109.720 360.800 L 103.600 360.800 103.600 348.400 L 103.600 336.000 116.200 336.000 L 128.800 336.000 128.800 348.790 M296.400 342.000 L 296.400 348.000 290.200 348.000 L 284.000 348.000 284.000 342.000 L 284.000 336.000 290.200 336.000 L 296.400 336.000 296.400 342.000 M361.065 345.300 C 360.920 350.415,360.801 356.080,360.801 357.890 L 360.800 361.179 354.700 361.290 L 348.600 361.400 348.490 367.500 L 348.379 373.600 345.254 373.600 C 343.536 373.600,337.776 373.719,332.454 373.864 L 322.779 374.129 322.890 367.764 L 323.000 361.400 329.290 361.290 L 335.580 361.180 335.690 354.890 L 335.800 348.600 342.100 348.490 L 348.400 348.380 348.400 342.190 L 348.400 336.000 354.864 336.000 L 361.328 336.000 361.065 345.300 M232.672 361.461 C 232.523 361.611,232.400 364.493,232.400 367.867 L 232.400 374.000 245.210 374.000 L 258.020 374.000 257.910 367.700 L 257.800 361.400 245.372 361.294 C 238.537 361.236,232.822 361.311,232.672 361.461 M322.400 380.600 L 322.400 386.800 303.400 386.800 L 284.400 386.800 284.400 380.600 L 284.400 374.400 303.400 374.400 L 322.400 374.400 322.400 380.600 " stroke="none" fill="#acacac" fill-rule="evenodd"></path><path id="path1" d="M180.800 32.400 L 180.800 38.400 193.600 38.400 L 206.400 38.400 206.400 32.400 L 206.400 26.400 193.600 26.400 L 180.800 26.400 180.800 32.400 M155.110 123.100 L 155.000 129.400 135.900 129.504 L 116.800 129.608 116.800 135.594 L 116.800 141.580 123.100 141.690 L 129.400 141.800 129.510 148.090 L 129.620 154.380 135.910 154.490 L 142.200 154.600 142.200 180.600 L 142.200 206.600 129.227 206.706 C 119.115 206.788,116.183 206.700,115.933 206.306 C 115.757 206.028,115.609 203.150,115.606 199.910 L 115.600 194.020 109.300 193.910 L 103.000 193.800 102.894 180.827 C 102.812 170.715,102.900 167.783,103.294 167.533 C 103.572 167.357,106.550 167.209,109.910 167.206 L 116.021 167.200 115.910 161.100 L 115.800 155.000 103.345 154.894 C 93.460 154.811,90.849 154.895,90.692 155.305 C 90.583 155.589,90.589 167.197,90.706 181.101 L 90.919 206.380 96.960 206.490 L 103.000 206.600 103.000 213.000 L 103.000 219.400 96.800 219.400 L 90.600 219.400 90.400 213.200 L 90.200 207.000 84.100 206.890 L 78.000 206.779 78.000 219.379 L 78.000 231.980 84.300 232.090 L 90.600 232.200 90.710 238.500 L 90.820 244.800 103.567 244.800 C 114.822 244.800,116.343 244.874,116.557 245.433 C 116.691 245.781,116.800 248.661,116.800 251.833 L 116.800 257.600 161.390 257.600 L 205.980 257.600 206.090 251.300 L 206.200 245.000 219.000 244.800 L 231.800 244.600 231.910 238.310 L 232.020 232.020 238.310 231.910 L 244.600 231.800 244.800 219.000 L 245.000 206.200 251.300 206.090 L 257.600 205.980 257.600 187.190 L 257.600 168.400 251.700 168.394 C 244.226 168.386,244.844 168.988,244.711 161.583 L 244.600 155.400 238.300 155.290 L 232.000 155.180 232.000 148.790 L 232.000 142.400 225.643 142.400 C 218.097 142.400,218.800 143.122,218.800 135.373 L 218.800 129.611 206.100 129.506 L 193.400 129.400 193.290 123.100 L 193.180 116.800 174.200 116.800 L 155.220 116.800 155.110 123.100 M206.800 148.000 L 206.800 154.400 213.157 154.400 C 220.703 154.400,220.000 153.678,220.000 161.433 L 220.000 167.200 225.920 167.200 C 233.320 167.200,232.800 166.665,232.800 174.280 L 232.800 180.400 239.210 180.400 L 245.619 180.400 245.510 187.100 L 245.400 193.800 239.110 193.910 L 232.820 194.020 232.710 200.310 L 232.600 206.600 226.200 206.800 L 219.800 207.000 219.689 212.773 C 219.548 220.065,219.999 219.601,213.051 219.594 C 205.875 219.586,206.444 220.145,206.311 212.983 L 206.200 207.000 187.021 206.896 C 172.288 206.816,167.769 206.677,167.527 206.296 C 167.110 205.640,167.119 181.547,167.536 180.890 C 167.782 180.502,169.442 180.406,174.430 180.490 L 181.000 180.600 181.110 186.900 L 181.220 193.200 194.000 193.200 L 206.780 193.200 206.890 199.700 L 207.000 206.200 212.900 206.311 L 218.800 206.421 218.800 187.411 L 218.800 168.400 212.880 168.400 C 205.480 168.400,206.000 168.935,206.000 161.320 L 206.000 155.200 193.600 155.200 L 181.200 155.200 181.200 161.320 C 181.200 168.944,181.738 168.400,174.200 168.400 C 166.679 168.400,167.200 168.910,167.200 161.553 C 167.200 153.659,166.491 154.400,174.043 154.400 L 180.400 154.400 180.400 148.000 L 180.400 141.600 193.600 141.600 L 206.800 141.600 206.800 148.000 M129.120 219.280 C 129.452 219.612,129.600 221.653,129.600 225.880 L 129.600 232.000 142.000 232.000 L 154.400 232.000 154.400 225.643 C 154.400 218.091,153.659 218.800,161.553 218.800 C 168.910 218.800,168.400 218.279,168.400 225.800 C 168.400 233.338,168.944 232.800,161.320 232.800 L 155.200 232.800 155.200 239.200 L 155.200 245.600 142.000 245.600 L 128.800 245.600 128.800 239.200 L 128.800 232.800 122.680 232.800 C 115.056 232.800,115.600 233.338,115.600 225.800 C 115.600 218.268,115.068 218.800,122.600 218.800 C 126.764 218.800,128.789 218.949,129.120 219.280 M65.200 290.400 L 65.200 296.400 71.200 296.400 L 77.200 296.400 77.200 290.400 L 77.200 284.400 71.200 284.400 L 65.200 284.400 65.200 290.400 M52.000 309.600 L 52.000 322.000 64.611 322.000 L 77.221 322.000 77.111 316.100 L 77.000 310.200 70.600 310.000 L 64.200 309.800 64.090 303.500 L 63.980 297.200 57.990 297.200 L 52.000 297.200 52.000 309.600 M142.310 303.500 L 142.200 309.800 135.900 309.910 L 129.600 310.020 129.600 316.010 L 129.600 322.000 135.367 322.000 C 138.539 322.000,141.419 322.109,141.767 322.243 C 142.326 322.457,142.400 323.979,142.400 335.243 L 142.400 348.000 148.390 348.000 L 154.380 348.000 154.490 341.700 L 154.600 335.400 160.900 335.290 L 167.200 335.180 167.200 316.190 L 167.200 297.200 154.810 297.200 L 142.420 297.200 142.310 303.500 M181.106 322.889 L 181.000 335.800 174.700 335.910 L 168.400 336.020 168.394 341.910 C 168.386 349.372,168.987 348.756,161.583 348.889 L 155.400 349.000 155.294 361.235 L 155.189 373.469 174.094 373.734 C 184.492 373.880,195.925 373.999,199.500 374.000 L 206.000 374.000 206.000 367.800 L 206.000 361.600 202.465 361.600 C 200.520 361.600,194.850 361.481,189.865 361.336 L 180.800 361.072 180.800 354.782 L 180.800 348.492 193.400 348.197 L 206.000 347.902 206.000 335.551 L 206.000 323.200 200.100 323.194 C 192.626 323.186,193.244 323.788,193.111 316.383 L 193.000 310.200 187.106 310.089 L 181.211 309.979 181.106 322.889 M297.289 329.100 L 297.400 335.000 309.301 335.342 C 315.846 335.531,321.471 335.581,321.801 335.455 C 322.296 335.265,322.400 334.184,322.400 329.213 L 322.400 323.200 309.789 323.200 L 297.179 323.200 297.289 329.100 M103.600 348.400 L 103.600 360.800 109.720 360.800 C 117.350 360.800,116.800 360.250,116.800 367.880 L 116.800 374.000 129.210 374.000 L 141.621 374.000 141.510 367.900 L 141.400 361.800 135.100 361.690 L 128.800 361.580 128.800 348.790 L 128.800 336.000 116.200 336.000 L 103.600 336.000 103.600 348.400 M284.000 342.000 L 284.000 348.000 290.200 348.000 L 296.400 348.000 296.400 342.000 L 296.400 336.000 290.200 336.000 L 284.000 336.000 284.000 342.000 M348.400 342.190 L 348.400 348.380 342.100 348.490 L 335.800 348.600 335.690 354.890 L 335.580 361.180 329.290 361.290 L 323.000 361.400 322.890 367.764 L 322.779 374.129 332.454 373.864 C 337.776 373.719,343.536 373.600,345.254 373.600 L 348.379 373.600 348.490 367.500 L 348.600 361.400 354.700 361.290 L 360.800 361.179 360.801 357.890 C 360.801 356.080,360.920 350.415,361.065 345.300 L 361.328 336.000 354.864 336.000 L 348.400 336.000 348.400 342.190 M284.400 380.600 L 284.400 386.800 303.400 386.800 L 322.400 386.800 322.400 380.600 L 322.400 374.400 303.400 374.400 L 284.400 374.400 284.400 380.600 " stroke="none" fill="#fcfcfc" fill-rule="evenodd"></path><path id="path2" d="M180.000 6.200 L 180.000 12.400 167.200 12.400 L 154.400 12.400 154.400 18.800 L 154.400 25.200 141.400 25.200 L 128.400 25.200 128.400 31.600 L 128.400 38.000 96.200 38.000 L 64.000 38.000 64.000 44.600 L 64.000 51.200 51.000 51.200 L 38.000 51.200 38.000 57.600 L 38.000 64.000 25.200 64.000 L 12.400 64.000 12.400 70.400 L 12.400 76.800 6.200 76.800 L 0.000 76.800 0.000 90.400 L 0.000 104.000 6.200 104.000 L 12.400 104.000 12.400 110.400 L 12.400 116.800 18.800 116.800 L 25.200 116.800 25.200 123.200 L 25.200 129.600 31.600 129.600 L 38.000 129.600 38.000 136.000 L 38.000 142.400 44.600 142.400 L 51.200 142.400 51.200 154.800 L 51.200 167.200 44.600 167.200 L 38.000 167.200 38.000 180.000 L 38.000 192.800 31.600 192.800 L 25.200 192.800 25.200 200.000 L 25.200 207.200 31.600 207.200 L 38.000 207.200 38.000 213.600 L 38.000 220.000 44.600 220.000 L 51.200 220.000 51.200 226.400 L 51.200 232.800 57.600 232.800 L 64.000 232.800 64.000 239.400 L 64.000 246.000 70.400 246.000 L 76.800 246.000 76.800 252.400 L 76.800 258.800 83.200 258.800 L 89.600 258.800 89.600 264.600 L 89.600 270.400 77.400 270.400 L 65.200 270.400 65.200 264.000 L 65.200 257.600 58.810 257.600 L 52.420 257.600 52.310 251.100 L 52.200 244.600 45.700 244.490 L 39.200 244.380 39.200 237.990 L 39.200 231.600 32.800 231.600 L 26.400 231.600 26.400 225.200 L 26.400 218.800 19.400 218.800 L 12.400 218.800 12.400 225.200 L 12.400 231.600 6.200 231.600 L 0.000 231.600 0.000 245.200 L 0.000 258.800 6.200 258.800 L 12.400 258.800 12.400 265.200 L 12.400 271.600 18.800 271.600 L 25.200 271.600 25.200 278.000 L 25.200 284.400 31.600 284.400 L 38.000 284.400 38.000 303.800 L 38.000 323.200 44.600 323.200 L 51.200 323.200 51.200 329.600 L 51.200 336.000 70.400 336.000 L 89.600 336.000 89.600 349.000 L 89.600 362.000 96.200 362.000 L 102.800 362.000 102.800 374.800 L 102.800 387.600 109.200 387.600 L 115.600 387.600 115.600 393.800 L 115.600 400.000 129.010 400.000 L 142.420 400.000 142.310 393.700 L 142.200 387.400 129.344 387.295 L 116.489 387.189 116.194 374.404 L 115.899 361.620 109.650 361.510 L 103.400 361.400 103.294 348.627 C 103.212 338.675,103.300 335.783,103.694 335.533 C 104.348 335.119,128.042 335.112,128.694 335.526 C 129.066 335.762,129.215 338.967,129.294 348.420 L 129.400 361.000 135.600 361.200 L 141.800 361.400 141.897 367.000 C 142.041 375.256,141.304 374.441,148.510 374.310 L 154.600 374.200 154.706 361.500 L 154.811 348.800 148.686 348.800 C 144.455 348.800,142.412 348.652,142.080 348.320 C 141.727 347.967,141.600 344.527,141.600 335.330 L 141.600 322.820 135.300 322.710 L 129.000 322.600 129.000 316.200 L 129.000 309.800 135.300 309.690 L 141.600 309.580 141.606 303.690 C 141.609 300.450,141.757 297.572,141.933 297.294 C 142.183 296.900,145.075 296.812,155.027 296.894 L 167.800 297.000 167.904 316.100 L 168.008 335.200 174.198 335.200 L 180.389 335.200 180.494 322.500 L 180.600 309.800 187.000 309.800 L 193.400 309.800 193.600 316.000 L 193.800 322.200 200.200 322.400 L 206.600 322.600 206.706 335.152 C 206.781 344.081,206.680 347.862,206.357 348.252 C 206.008 348.673,204.469 348.800,199.741 348.800 L 193.579 348.800 193.690 354.900 L 193.800 361.000 200.200 361.200 L 206.600 361.400 206.800 367.800 L 207.000 374.200 213.110 374.310 L 219.220 374.421 219.110 380.710 L 219.000 387.000 200.000 387.000 L 181.000 387.000 180.800 380.800 L 180.600 374.600 167.700 374.494 L 154.800 374.389 154.800 380.994 L 154.800 387.600 167.400 387.600 L 180.000 387.600 180.000 393.800 L 180.000 400.000 213.000 400.000 L 246.000 400.000 246.000 393.800 L 246.000 387.600 258.200 387.600 L 270.400 387.600 270.400 393.800 L 270.400 400.000 303.200 400.000 L 336.000 400.000 336.000 393.800 L 336.000 387.600 349.000 387.600 L 362.000 387.600 362.000 381.200 L 362.000 374.800 368.400 374.800 L 374.800 374.800 374.800 362.000 L 374.800 349.200 381.252 349.200 L 387.704 349.200 387.408 336.100 C 387.203 327.021,386.973 322.910,386.656 322.706 C 386.405 322.544,377.695 322.409,367.300 322.406 L 348.400 322.400 348.400 316.187 C 348.400 311.567,348.272 309.935,347.900 309.819 C 347.625 309.733,336.015 309.575,322.100 309.467 L 296.800 309.271 296.800 315.836 L 296.800 322.400 303.700 322.400 C 307.495 322.401,319.105 322.520,329.500 322.666 L 348.400 322.931 348.400 329.021 L 348.400 335.111 361.200 335.406 L 374.000 335.701 374.000 342.051 L 374.000 348.400 367.851 348.400 L 361.701 348.400 361.407 361.151 L 361.113 373.901 348.457 374.251 L 335.800 374.600 335.600 380.800 L 335.400 387.000 309.600 387.000 L 283.800 387.000 283.600 380.600 L 283.400 374.200 277.290 374.090 L 271.180 373.979 271.290 367.690 L 271.400 361.400 284.100 361.294 L 296.800 361.189 296.800 355.039 L 296.800 348.889 284.000 348.594 L 271.200 348.299 271.200 342.003 L 271.200 335.707 283.700 335.412 C 290.575 335.251,296.335 335.036,296.500 334.935 C 296.665 334.835,296.800 332.074,296.800 328.800 C 296.800 325.526,296.665 322.766,296.500 322.668 C 296.335 322.569,290.485 322.356,283.500 322.195 L 270.800 321.902 270.800 328.741 L 270.800 335.580 264.500 335.690 L 258.200 335.800 258.000 342.000 L 257.800 348.200 251.600 348.200 L 245.400 348.200 245.493 341.800 C 245.544 338.280,245.688 332.655,245.813 329.300 L 246.040 323.200 251.758 323.200 C 259.703 323.200,258.800 326.679,258.800 296.069 L 258.800 270.400 252.400 270.400 L 246.000 270.400 246.000 264.600 L 246.000 258.800 265.200 258.800 L 284.400 258.800 284.400 252.400 L 284.400 246.000 297.400 246.000 L 310.400 246.000 310.400 239.400 L 310.400 232.800 316.800 232.800 L 323.200 232.800 323.200 226.400 L 323.200 220.000 329.600 220.000 L 336.000 220.000 336.000 213.600 L 336.000 207.200 342.600 207.200 L 349.200 207.200 349.200 180.800 L 349.200 154.400 342.600 154.400 L 336.000 154.400 336.000 147.800 L 336.000 141.200 329.600 141.200 L 323.200 141.200 323.200 134.800 L 323.200 128.400 316.800 128.400 L 310.400 128.400 310.400 115.600 L 310.400 102.800 304.000 102.800 L 297.600 102.800 297.600 96.800 L 297.600 90.800 304.000 90.800 L 310.400 90.800 310.400 84.400 L 310.400 78.000 316.200 78.000 L 322.000 78.000 322.000 84.400 L 322.000 90.800 335.000 90.800 L 348.000 90.800 348.000 97.400 L 348.000 104.000 355.000 104.000 L 362.000 104.000 362.000 90.400 L 362.000 76.800 355.600 76.800 L 349.200 76.800 349.200 64.000 L 349.200 51.200 342.600 51.200 L 336.000 51.200 336.000 44.600 L 336.000 38.000 329.600 38.000 L 323.200 38.000 323.200 31.600 L 323.200 25.200 310.400 25.200 L 297.600 25.200 297.600 18.800 L 297.600 12.400 278.200 12.400 L 258.800 12.400 258.800 6.200 L 258.800 0.000 219.400 0.000 L 180.000 0.000 180.000 6.200 M209.900 25.865 L 219.200 26.128 219.200 32.467 L 219.200 38.806 193.700 38.703 L 168.200 38.600 168.090 32.310 L 167.980 26.020 174.290 25.899 C 188.407 25.628,201.101 25.616,209.900 25.865 M245.110 45.294 L 245.220 51.589 257.910 51.694 L 270.600 51.800 270.710 58.106 L 270.820 64.411 258.110 64.306 L 245.400 64.200 245.290 57.900 L 245.180 51.600 232.390 51.600 L 219.600 51.600 219.600 45.194 L 219.600 38.789 232.300 38.894 L 245.000 39.000 245.110 45.294 M283.562 64.954 C 283.875 65.331,283.986 67.410,283.911 71.454 L 283.800 77.400 277.600 77.400 L 271.400 77.400 271.290 70.900 L 271.180 64.400 277.141 64.400 C 281.733 64.400,283.208 64.527,283.562 64.954 M206.490 83.900 L 206.600 90.200 219.400 90.400 L 232.200 90.600 232.310 96.890 L 232.420 103.180 238.710 103.290 L 245.000 103.400 245.111 109.583 C 245.244 116.987,244.628 116.386,252.090 116.394 L 257.980 116.400 258.090 122.700 L 258.200 129.000 264.500 129.110 L 270.800 129.220 270.806 135.110 C 270.814 142.572,270.213 141.956,277.617 142.089 L 283.800 142.200 283.910 148.490 L 284.020 154.780 290.310 154.890 L 296.600 155.000 296.711 161.183 C 296.844 168.587,296.228 167.986,303.690 167.994 L 309.580 168.000 309.690 174.300 L 309.800 180.600 316.100 180.710 L 322.400 180.820 322.400 193.600 L 322.400 206.380 316.100 206.490 L 309.800 206.600 309.690 212.900 L 309.580 219.200 303.690 219.206 C 296.228 219.214,296.844 218.613,296.711 226.017 L 296.600 232.200 283.800 232.400 L 271.000 232.600 270.800 238.800 L 270.600 245.000 258.000 245.000 L 245.400 245.000 245.290 238.690 L 245.180 232.380 238.890 232.490 L 232.600 232.600 232.489 238.572 C 232.344 246.377,233.818 245.600,219.151 245.600 L 206.800 245.600 206.800 251.551 C 206.800 256.076,206.670 257.610,206.257 257.953 C 205.860 258.282,193.698 258.376,160.957 258.302 L 116.200 258.200 116.090 251.900 L 115.980 245.600 103.404 245.600 C 88.481 245.600,90.000 246.435,90.000 238.236 L 90.000 232.420 83.700 232.310 L 77.400 232.200 77.294 219.300 L 77.189 206.400 71.427 206.400 C 63.689 206.400,64.400 205.728,64.400 213.043 L 64.400 219.200 58.010 219.200 L 51.620 219.200 51.510 212.900 L 51.400 206.600 45.100 206.490 L 38.800 206.380 38.800 200.000 L 38.800 193.620 45.100 193.510 L 51.400 193.400 51.506 180.710 L 51.611 168.020 57.906 167.910 L 64.200 167.800 64.400 142.200 L 64.600 116.600 70.572 116.489 C 78.081 116.349,77.555 116.869,77.690 109.459 L 77.800 103.400 84.000 103.200 L 90.200 103.000 90.400 96.800 L 90.600 90.600 103.180 90.494 C 112.633 90.415,115.838 90.266,116.074 89.894 C 116.246 89.622,116.391 86.745,116.394 83.500 L 116.400 77.600 161.390 77.600 L 206.380 77.600 206.490 83.900 M296.600 84.000 L 296.600 90.200 290.400 90.200 L 284.200 90.200 284.090 83.890 L 283.980 77.580 290.290 77.690 L 296.600 77.800 296.600 84.000 M155.071 103.463 C 154.922 103.612,154.800 106.493,154.800 109.867 L 154.800 116.000 174.210 116.000 L 193.620 116.000 193.510 109.700 L 193.400 103.400 174.371 103.296 C 163.904 103.239,155.219 103.314,155.071 103.463 M116.441 116.551 C 116.125 116.931,116.013 118.936,116.089 122.855 L 116.200 128.600 135.400 128.600 L 154.600 128.600 154.600 122.400 L 154.600 116.200 135.752 116.096 C 120.017 116.009,116.828 116.084,116.441 116.551 M193.776 116.518 C 193.667 116.804,193.627 119.639,193.689 122.818 L 193.800 128.600 206.600 128.600 L 219.400 128.600 219.511 122.855 C 219.587 118.959,219.474 116.931,219.162 116.555 C 218.507 115.764,194.079 115.730,193.776 116.518 M90.400 135.600 L 90.400 142.000 84.000 142.000 L 77.600 142.000 77.600 148.410 L 77.600 154.820 83.900 154.710 L 90.200 154.600 90.310 148.300 L 90.420 142.000 103.210 142.000 L 116.000 142.000 116.000 135.600 L 116.000 129.200 103.200 129.200 L 90.400 129.200 90.400 135.600 M219.600 135.390 L 219.600 141.600 226.010 141.600 L 232.421 141.600 232.310 135.500 L 232.200 129.400 225.900 129.290 L 219.600 129.180 219.600 135.390 M116.180 142.508 C 116.068 142.799,116.027 145.639,116.089 148.818 L 116.200 154.600 122.510 154.710 L 128.820 154.820 128.710 148.510 L 128.600 142.200 122.491 142.090 C 117.717 142.003,116.339 142.095,116.180 142.508 M180.978 142.513 C 180.868 142.801,180.827 145.639,180.889 148.818 L 181.000 154.600 193.600 154.600 L 206.200 154.600 206.200 148.400 L 206.200 142.200 193.690 142.094 C 183.668 142.010,181.139 142.093,180.978 142.513 M232.490 148.290 L 232.600 154.600 238.800 154.600 L 245.000 154.600 245.000 148.400 L 245.000 142.200 238.690 142.090 L 232.380 141.980 232.490 148.290 M245.600 161.190 L 245.600 167.600 251.810 167.600 L 258.020 167.600 257.910 161.300 L 257.800 155.000 251.700 154.890 L 245.600 154.779 245.600 161.190 M129.200 161.176 C 129.200 164.463,129.065 167.235,128.900 167.335 C 128.735 167.436,122.975 167.651,116.100 167.812 L 103.600 168.107 103.600 180.653 L 103.600 193.200 110.000 193.200 L 116.400 193.200 116.400 186.990 L 116.400 180.780 122.700 180.890 L 129.000 181.000 129.000 187.200 L 129.000 193.400 122.690 193.510 L 116.380 193.620 116.490 199.910 L 116.600 206.200 129.100 206.306 L 141.600 206.411 141.600 180.806 L 141.600 155.200 135.400 155.200 L 129.200 155.200 129.200 161.176 M168.000 161.400 L 168.000 167.600 174.200 167.600 L 180.400 167.600 180.400 161.400 L 180.400 155.200 174.200 155.200 L 168.000 155.200 168.000 161.400 M206.800 161.400 L 206.800 167.600 213.000 167.600 L 219.200 167.600 219.200 161.400 L 219.200 155.200 213.000 155.200 L 206.800 155.200 206.800 161.400 M77.877 167.856 C 77.725 168.009,77.600 176.743,77.600 187.267 L 77.600 206.400 83.804 206.400 L 90.008 206.400 89.904 187.100 L 89.800 167.800 83.977 167.690 C 80.774 167.629,78.029 167.704,77.877 167.856 M258.667 167.867 C 258.520 168.013,258.400 176.748,258.400 187.277 L 258.400 206.420 264.700 206.310 L 271.000 206.200 271.104 187.446 C 271.179 173.931,271.081 168.539,270.755 168.146 C 270.276 167.569,259.220 167.313,258.667 167.867 M219.696 187.100 L 219.800 206.200 225.900 206.310 L 232.000 206.421 232.000 200.259 C 232.000 192.711,231.468 193.252,239.028 193.111 L 245.000 193.000 245.000 187.000 L 245.000 181.000 238.600 180.800 L 232.200 180.600 232.090 174.300 L 231.980 168.000 225.786 168.000 L 219.592 168.000 219.696 187.100 M168.181 181.304 C 168.075 181.581,168.036 187.296,168.094 194.004 L 168.200 206.200 187.200 206.200 L 206.200 206.200 206.200 200.000 L 206.200 193.800 193.400 193.600 L 180.600 193.400 180.490 187.100 L 180.380 180.800 174.377 180.800 C 169.918 180.800,168.325 180.930,168.181 181.304 M245.600 219.610 L 245.600 232.421 251.700 232.310 L 257.800 232.200 257.906 219.500 L 258.011 206.800 251.806 206.800 L 245.600 206.800 245.600 219.610 M116.400 225.800 L 116.400 232.000 122.600 232.000 L 128.800 232.000 128.800 225.800 L 128.800 219.600 122.600 219.600 L 116.400 219.600 116.400 225.800 M155.200 225.800 L 155.200 232.000 161.400 232.000 L 167.600 232.000 167.600 225.800 L 167.600 219.600 161.400 219.600 L 155.200 219.600 155.200 225.800 M26.000 238.800 L 26.200 245.000 32.400 245.200 L 38.600 245.400 38.710 251.690 L 38.820 257.980 45.110 258.090 L 51.400 258.200 51.511 264.383 C 51.644 271.788,51.026 271.186,58.500 271.194 L 64.400 271.200 64.400 277.390 L 64.400 283.580 70.900 283.690 L 77.400 283.800 77.511 290.170 C 77.643 297.819,78.258 297.186,70.690 297.194 L 64.779 297.200 64.890 303.300 L 65.000 309.400 71.200 309.600 L 77.400 309.800 77.400 316.200 L 77.400 322.600 64.500 322.706 L 51.600 322.811 51.600 309.816 L 51.600 296.820 57.900 296.710 L 64.200 296.600 64.310 290.306 L 64.420 284.011 51.710 283.906 L 39.000 283.800 38.889 277.617 C 38.756 270.213,39.372 270.814,31.910 270.806 L 26.020 270.800 25.910 264.500 L 25.800 258.200 19.400 258.000 L 13.000 257.800 12.894 245.604 C 12.836 238.896,12.877 233.177,12.985 232.894 C 13.137 232.498,14.639 232.405,19.491 232.490 L 25.800 232.600 26.000 238.800 M129.472 232.661 C 129.323 232.811,129.200 235.606,129.200 238.872 L 129.200 244.811 141.900 244.706 L 154.600 244.600 154.600 238.600 L 154.600 232.600 142.172 232.494 C 135.337 232.436,129.622 232.511,129.472 232.661 M103.110 303.310 L 103.220 309.620 96.910 309.510 L 90.600 309.400 90.489 303.618 C 90.343 296.047,89.665 296.759,96.891 296.890 L 103.000 297.000 103.110 303.310 M115.910 316.110 L 116.020 322.420 109.710 322.310 L 103.400 322.200 103.289 316.418 C 103.143 308.847,102.465 309.559,109.691 309.690 L 115.800 309.800 115.910 316.110 M155.380 336.108 C 155.268 336.399,155.227 339.239,155.289 342.418 L 155.400 348.200 161.400 348.200 L 167.400 348.200 167.400 342.000 L 167.400 335.800 161.492 335.689 C 156.881 335.603,155.539 335.695,155.380 336.108 M297.200 341.990 L 297.200 348.400 303.410 348.400 L 309.620 348.400 309.510 342.100 L 309.400 335.800 303.300 335.690 L 297.200 335.579 297.200 341.990 M257.910 367.700 L 258.020 374.000 245.210 374.000 L 232.400 374.000 232.400 367.867 C 232.400 364.493,232.523 361.611,232.672 361.461 C 232.822 361.311,238.537 361.236,245.372 361.294 L 257.800 361.400 257.910 367.700 " stroke="none" fill="#040404" fill-rule="evenodd"></path></g></svg>
